<svg width="102" height="32" viewBox="0 0 102 32" fill="none" xmlns="http://www.w3.org/2000/svg">
<path fill-rule="evenodd" clip-rule="evenodd" d="M27.3538 25.14C28.0702 26.3809 29.1007 27.4113 30.3415 28.1277C31.5824 28.8441 32.99 29.2213 34.4228 29.2213C35.8556 29.2213 37.2632 28.8441 38.5041 28.1277C39.7449 27.4113 40.7754 26.3809 41.4918 25.14L43.8982 26.5294C42.938 28.1926 41.5567 29.5739 39.8935 30.5341C38.2302 31.4944 36.3434 32 34.4228 32C32.5022 32 30.6154 31.4944 28.9522 30.5341C27.2889 29.5739 25.9077 28.1926 24.9474 26.5294L27.3538 25.14Z" fill="#00A0AC"/>
<path d="M13.6557 18.8843C13.6928 19.2548 13.8687 19.5698 14.1837 19.8291C14.4986 20.0885 14.6561 20.2922 14.6561 20.4404V20.5516C14.6561 20.7739 14.4708 20.885 14.1003 20.885H10.7658C10.3953 20.885 10.2101 20.7739 10.2101 20.5516V20.4404C10.2101 20.3108 10.2934 20.1811 10.4602 20.0514C10.6454 19.9217 10.8214 19.7735 10.9881 19.6068C11.1548 19.4216 11.2289 19.19 11.2104 18.9121L10.9325 13.2435C10.8584 11.6503 10.5157 10.437 9.9044 9.60333C9.29308 8.76971 8.49651 8.3529 7.51468 8.3529C6.49581 8.3529 5.66219 8.71414 5.01382 9.43661C4.36544 10.1591 4.04126 11.0761 4.04126 12.1876V18.9399C4.04126 19.2919 4.22651 19.5975 4.597 19.8569C4.9675 20.0977 5.15275 20.2922 5.15275 20.4404V20.5238C5.15275 20.7646 4.95824 20.885 4.56922 20.885H1.09579C0.743814 20.885 0.567827 20.7646 0.567827 20.5238V20.4404C0.567827 20.2922 0.734551 20.0977 1.068 19.8569C1.41997 19.5975 1.59596 19.2919 1.59596 18.9399V3.24001C1.59596 2.92509 1.50334 2.675 1.31809 2.48975C1.15136 2.28598 0.975376 2.12852 0.790126 2.01737C0.623401 1.88769 0.540039 1.76728 0.540039 1.65613V1.57277C0.540039 1.36899 0.669714 1.21153 0.929063 1.10038L3.20763 0.100035C3.44846 -0.0111145 3.64297 -0.0296398 3.79117 0.044459C3.93937 0.100034 4.01347 0.238972 4.01347 0.461272L3.95789 9.4644C4.90267 8.00093 6.28278 7.26919 8.09822 7.26919C9.54317 7.26919 10.7473 7.77863 11.7106 8.7975C12.6924 9.79785 13.2389 11.2984 13.35 13.2991L13.6557 18.8843Z" fill="white"/>
<path d="M27.1356 16.967C27.2653 16.7632 27.4413 16.6891 27.6636 16.7447C27.8859 16.7818 27.9785 16.93 27.9415 17.1893C27.7377 18.1711 27.1449 19.0788 26.1631 19.9125C25.1813 20.7461 23.8938 21.1629 22.3006 21.1629C20.4667 21.1629 18.9291 20.5145 17.6879 19.2178C16.4653 17.921 15.854 16.2167 15.854 14.1049C15.854 12.1598 16.4838 10.5388 17.7435 9.2421C19.0032 7.92683 20.5593 7.26919 22.4118 7.26919C23.9864 7.26919 25.2368 7.69527 26.1631 8.54741C27.1079 9.38104 27.5802 10.3258 27.5802 11.3817C27.5802 12.1783 27.1449 12.7248 26.2742 13.0212L18.5771 15.5498C18.892 16.754 19.4478 17.6987 20.2444 18.3842C21.0595 19.0511 22.032 19.3845 23.162 19.3845C25.0701 19.3845 26.3946 18.5787 27.1356 16.967ZM21.995 8.15839C20.8835 8.15839 19.985 8.64004 19.2996 9.60333C18.6142 10.5666 18.2715 11.7708 18.2715 13.2157C18.2715 13.7715 18.3085 14.2438 18.3826 14.6329L24.5792 12.4099C25.0238 12.2246 25.2461 11.9004 25.2461 11.4373C25.2461 10.7334 24.9219 10.0109 24.2735 9.26989C23.6437 8.52889 22.8842 8.15839 21.995 8.15839Z" fill="white"/>
<path d="M29.7996 20.885C29.4476 20.885 29.2716 20.7646 29.2716 20.5238V20.4404C29.2716 20.2922 29.4291 20.0977 29.744 19.8569C30.0774 19.5975 30.2442 19.2919 30.2442 18.9399V3.32338C30.2442 3.00845 30.1608 2.7491 29.9941 2.54533C29.8459 2.32303 29.6884 2.14704 29.5217 2.01737C29.355 1.88769 29.2716 1.76728 29.2716 1.65613V1.60056C29.2716 1.45236 29.4013 1.30416 29.6606 1.15596L31.828 0.100035C32.1059 -0.0111145 32.3189 -0.0203769 32.4671 0.0722478C32.6153 0.146347 32.6894 0.285284 32.6894 0.489059V18.9399C32.6894 19.2919 32.8654 19.5975 33.2174 19.8569C33.5879 20.0977 33.7732 20.2922 33.7732 20.4404V20.5238C33.7732 20.7646 33.5879 20.885 33.2174 20.885H29.7996Z" fill="white"/>
<path d="M35.915 20.885C35.563 20.885 35.387 20.7646 35.387 20.5238V20.4404C35.387 20.2922 35.5445 20.0977 35.8594 19.8569C36.1928 19.5975 36.3596 19.2919 36.3596 18.9399V3.32338C36.3596 3.00845 36.2762 2.7491 36.1095 2.54533C35.9613 2.32303 35.8038 2.14704 35.6371 2.01737C35.4704 1.88769 35.387 1.76728 35.387 1.65613V1.60056C35.387 1.45236 35.5167 1.30416 35.776 1.15596L37.9434 0.100035C38.2213 -0.0111145 38.4343 -0.0203769 38.5826 0.0722478C38.7307 0.146347 38.8048 0.285284 38.8048 0.489059V18.9399C38.8048 19.2919 38.9808 19.5975 39.3328 19.8569C39.7033 20.0977 39.8886 20.2922 39.8886 20.4404V20.5238C39.8886 20.7646 39.7033 20.885 39.3328 20.885H35.915Z" fill="white"/>
<path d="M48.616 21.1629C46.4671 21.1629 44.7165 20.4682 43.3642 19.0788C42.0304 17.671 41.3635 15.9852 41.3635 14.0215C41.3635 12.0949 42.0118 10.4925 43.3086 9.21431C44.6053 7.91756 46.2077 7.26919 48.1158 7.26919C50.1721 7.26919 51.8578 7.95462 53.1731 9.32546C54.5069 10.6778 55.1738 12.345 55.1738 14.3272C55.1738 16.2723 54.5625 17.9025 53.3398 19.2178C52.1172 20.5145 50.5426 21.1629 48.616 21.1629ZM48.9494 20.2459C50.0424 20.2459 50.9409 19.7828 51.6448 18.8566C52.3673 17.9303 52.7285 16.6984 52.7285 15.1608C52.7285 13.1972 52.2654 11.5485 51.3392 10.2147C50.4129 8.86234 49.2458 8.18618 47.8379 8.18618C46.6523 8.18618 45.689 8.6493 44.948 9.57555C44.207 10.4833 43.8365 11.7059 43.8365 13.2435C43.8365 15.096 44.3182 16.7262 45.2815 18.1341C46.2448 19.542 47.4674 20.2459 48.9494 20.2459Z" fill="white"/>
<path d="M68.6001 7.54707C69.4708 7.54707 70.0358 7.62117 70.2952 7.76936C70.5545 7.89904 70.6657 8.1306 70.6286 8.46405C70.6101 8.7234 70.5175 8.93644 70.3507 9.10316C70.2025 9.25136 70.0451 9.35325 69.8784 9.40882C69.7302 9.44587 69.4986 9.50145 69.1837 9.57555C68.8873 9.63112 68.6742 9.67744 68.5446 9.71449C69.4523 10.7519 69.9062 11.9004 69.9062 13.1601C69.9062 15.3275 68.9058 16.9207 66.9051 17.9396C68.0907 18.1989 68.9336 18.5787 69.4338 19.0788C69.9339 19.5605 70.184 20.1718 70.184 20.9128C70.184 22.0058 69.4893 22.895 68.1 23.5804C66.7106 24.2844 64.9878 24.6363 62.9315 24.6363C60.9123 24.6363 59.3099 24.3214 58.1243 23.6916C56.9572 23.0617 56.3737 22.1633 56.3737 20.9962C56.3737 20.5145 56.5404 20.0885 56.8738 19.718C57.2073 19.3475 57.6797 19.1622 58.291 19.1622C58.8468 19.1622 59.3191 19.3752 59.7082 19.8013C60.1157 20.2274 60.4121 20.6998 60.5974 21.2185C60.8011 21.7372 61.0975 22.2096 61.4866 22.6356C61.8941 23.0802 62.385 23.3025 62.9593 23.3025C63.6818 23.3211 64.2468 23.108 64.6543 22.6634C65.0619 22.2374 65.2656 21.6723 65.2656 20.9684C65.2656 19.6902 64.8766 18.9399 64.0986 18.7176C63.691 18.7547 63.3576 18.7732 63.0982 18.7732C61.1346 18.7732 59.5136 18.2545 58.2354 17.2171C56.9757 16.1797 56.3459 14.8366 56.3459 13.1879C56.3459 11.428 56.9757 10.0016 58.2354 8.90865C59.5136 7.81568 61.1531 7.26919 63.1538 7.26919C63.6725 7.26919 64.4876 7.3155 65.5991 7.40813C66.7106 7.50075 67.7109 7.54707 68.6001 7.54707ZM60.9864 10.9649C60.9864 12.4284 61.2735 13.8641 61.8478 15.272C62.4221 16.6799 63.0704 17.3838 63.7929 17.3838C64.256 17.3838 64.6173 17.18 64.8766 16.7725C65.1545 16.3464 65.2934 15.7721 65.2934 15.0497C65.2934 13.7344 65.0063 12.3358 64.432 10.8538C63.8577 9.37177 63.1909 8.63078 62.4313 8.63078C61.9867 8.63078 61.6348 8.83455 61.3754 9.2421C61.1161 9.64965 60.9864 10.2239 60.9864 10.9649Z" fill="white"/>
<path d="M78.9492 21.1629C76.8003 21.1629 74.9756 20.5053 73.4751 19.19C71.9931 17.8562 71.2521 16.189 71.2521 14.1883C71.2521 12.1876 71.9931 10.5388 73.4751 9.2421C74.9571 7.92683 76.717 7.26919 78.7547 7.26919C80.8666 7.26919 82.6635 7.92683 84.1455 9.2421C85.6275 10.5574 86.3685 12.2246 86.3685 14.2438C86.3685 16.2445 85.646 17.9025 84.201 19.2178C82.7561 20.5145 81.0055 21.1629 78.9492 21.1629ZM79.5328 19.8013C80.7184 19.8013 81.3111 18.662 81.3111 16.3835C81.3111 15.5498 81.1907 14.5588 80.9499 13.4102C80.7276 12.2617 80.3386 11.178 79.7828 10.1591C79.2456 9.14021 78.6436 8.63078 77.9767 8.63078C77.3283 8.63078 76.8652 8.91791 76.5873 9.49218C76.3094 10.0665 76.1705 10.9371 76.1705 12.1042C76.1705 12.7155 76.2446 13.438 76.3928 14.2716C76.541 15.1052 76.7448 15.9481 77.0041 16.8003C77.2635 17.6339 77.6154 18.3471 78.06 18.9399C78.5231 19.5142 79.0141 19.8013 79.5328 19.8013Z" fill="white"/>
<path d="M100.821 7.54707C101.247 7.54707 101.46 7.72305 101.46 8.07503V8.18618C101.46 8.44553 101.191 8.80676 100.654 9.26989C100.117 9.73301 99.765 10.1683 99.5983 10.5759L96.0137 20.1626C95.847 20.6442 95.5228 20.885 95.0412 20.885H92.5959C92.1698 20.885 91.8364 20.6442 91.5955 20.1626L87.3718 10.5759C87.2236 10.2424 86.9365 9.8349 86.5104 9.35325C86.1029 8.85308 85.8991 8.46405 85.8991 8.18618V8.07503C85.8991 7.72305 86.1122 7.54707 86.5382 7.54707H92.9293C93.3369 7.54707 93.5407 7.73232 93.5407 8.10281V8.21396C93.5407 8.39921 93.4573 8.62151 93.2906 8.88086C93.1238 9.12169 93.0034 9.34399 92.9293 9.54776C92.8738 9.75153 92.9201 10.122 93.0683 10.6593L95.458 16.9392L97.4865 11.3539C97.6902 10.5759 97.718 10.0387 97.5698 9.74227C97.4216 9.42735 97.1993 9.14021 96.9029 8.88086C96.6251 8.60299 96.4861 8.38069 96.4861 8.21396V8.10281C96.4861 7.73232 96.6992 7.54707 97.1252 7.54707H100.821Z" fill="white"/>
</svg>
