<svg width="16" height="16" viewBox="0 0 16 16" fill="none" xmlns="http://www.w3.org/2000/svg">
<path d="M8.26862 0.790031C8.0914 0.753584 7.90862 0.753584 7.73141 0.790031C7.52656 0.832161 7.34347 0.934712 7.19791 1.01624L7.15823 1.03841C5.98295 1.69134 3.99474 2.79644 2.87381 3.41952C2.60164 3.5708 2.46556 3.64644 2.42009 3.74641C2.38044 3.83357 2.38019 3.93356 2.41939 4.02091C2.46436 4.12111 2.60017 4.19751 2.8718 4.3503L7.73851 7.08785C7.83389 7.1415 7.88158 7.16832 7.93215 7.17884C7.97689 7.18814 8.02308 7.18814 8.06783 7.17884C8.11839 7.16832 8.16608 7.1415 8.26146 7.08785L13.1282 4.35029C13.3998 4.1975 13.5356 4.12111 13.5806 4.02091C13.6198 3.93355 13.6196 3.83356 13.5799 3.74641C13.5344 3.64644 13.3984 3.57079 13.1262 3.41951C12.0053 2.79644 10.0171 1.69134 8.84179 1.03841L8.80212 1.01624C8.65656 0.934713 8.47346 0.832161 8.26862 0.790031Z" fill="#9AA4B2"/>
<path d="M14.6639 5.92676C14.6637 5.62787 14.6636 5.47842 14.6005 5.39117C14.5456 5.31504 14.461 5.26564 14.3677 5.25511C14.2607 5.24305 14.1302 5.31646 13.8692 5.46329L8.93854 8.23679C8.83956 8.29246 8.79007 8.3203 8.75405 8.35968C8.72218 8.39452 8.69808 8.43573 8.68334 8.48059C8.66668 8.53129 8.66668 8.58807 8.66668 8.70163V14.1518C8.66668 14.4499 8.66668 14.599 8.72936 14.6862C8.78405 14.7623 8.86823 14.8118 8.96129 14.8227C9.06795 14.8352 9.19786 14.763 9.45767 14.6188C10.5686 14.0019 12.5877 12.8807 13.7751 12.221L13.8172 12.1977C13.9713 12.1128 14.1651 12.0061 14.3138 11.8447C14.4425 11.7051 14.5398 11.5397 14.5994 11.3594C14.6682 11.1509 14.6674 10.9298 14.6668 10.7538L14.6667 10.7058C14.6667 9.39704 14.665 7.17087 14.6639 5.92676Z" fill="#9AA4B2"/>
<path d="M6.54235 14.6187C6.80216 14.763 6.93207 14.8352 7.03873 14.8227C7.13179 14.8118 7.21597 14.7623 7.27066 14.6862C7.33334 14.599 7.33334 14.4499 7.33334 14.1518V8.70166C7.33334 8.5881 7.33334 8.53132 7.31668 8.48062C7.30194 8.43576 7.27784 8.39455 7.24597 8.35971C7.20995 8.32033 7.16046 8.29249 7.06148 8.23682L2.13083 5.4633C1.86981 5.31648 1.7393 5.24306 1.63234 5.25513C1.53902 5.26565 1.45447 5.31506 1.39948 5.39118C1.33645 5.47844 1.33633 5.62789 1.33608 5.92678C1.33504 7.17088 1.33335 9.39704 1.33335 10.7058L1.33323 10.7538C1.33259 10.9298 1.33178 11.1509 1.40066 11.3594C1.46021 11.5397 1.55756 11.7051 1.68619 11.8447C1.83497 12.0061 2.0287 12.1128 2.18278 12.1977L2.2249 12.221C3.41236 12.8807 5.43145 14.0019 6.54235 14.6187Z" fill="#9AA4B2"/>
</svg>
