<svg width="16" height="16" viewBox="0 0 16 16" fill="none" xmlns="http://www.w3.org/2000/svg">
<path d="M7.99998 13.3333H14M2 13.3333H3.11636C3.44248 13.3333 3.60554 13.3333 3.75899 13.2965C3.89504 13.2638 4.0251 13.21 4.1444 13.1368C4.27895 13.0544 4.39425 12.9391 4.62486 12.7085L13 4.33333C13.5523 3.78104 13.5523 2.88561 13 2.33333C12.4477 1.78104 11.5523 1.78104 11 2.33333L2.62484 10.7085C2.39424 10.9391 2.27894 11.0544 2.19648 11.1889C2.12338 11.3082 2.0695 11.4383 2.03684 11.5744C2 11.7278 2 11.8909 2 12.217V13.3333Z" stroke="#121926" stroke-width="1.5" stroke-linecap="round" stroke-linejoin="round"/>
</svg>
