<svg width="16" height="16" viewBox="0 0 16 16" fill="none" xmlns="http://www.w3.org/2000/svg">
<path fill-rule="evenodd" clip-rule="evenodd" d="M8.34844 0.890899C8.12024 0.829112 7.87972 0.829112 7.65152 0.890899C7.38661 0.962625 7.16358 1.13773 6.98557 1.27748L6.93582 1.31643L2.36248 4.87341C2.11139 5.06826 1.89018 5.23993 1.72534 5.4628C1.58068 5.65839 1.47292 5.87873 1.40734 6.113C1.33262 6.37994 1.33292 6.65995 1.33327 6.97777L1.33331 11.8923C1.3333 12.2438 1.33329 12.547 1.35369 12.7967C1.37523 13.0602 1.42277 13.3224 1.5513 13.5746C1.74305 13.951 2.04901 14.2569 2.42533 14.4487C2.67759 14.5772 2.93973 14.6247 3.2033 14.6463C3.45301 14.6667 3.75618 14.6667 4.1076 14.6667H11.8924C12.2438 14.6667 12.547 14.6667 12.7967 14.6463C13.0602 14.6247 13.3224 14.5772 13.5746 14.4487C13.951 14.2569 14.2569 13.951 14.4487 13.5746C14.5772 13.3224 14.6247 13.0602 14.6463 12.7967C14.6667 12.547 14.6667 12.2438 14.6666 11.8924L14.6667 6.97778C14.667 6.65995 14.6673 6.37994 14.5926 6.113C14.527 5.87873 14.4193 5.65839 14.2746 5.4628C14.1098 5.23993 13.8886 5.06826 13.6375 4.8734L9.06415 1.31643L9.01439 1.27748C8.83639 1.13773 8.61336 0.962626 8.34844 0.890899ZM6.06295 9.16715C5.97118 8.81059 5.60772 8.59593 5.25115 8.6877C4.89459 8.77948 4.67993 9.14293 4.7717 9.4995C5.1417 10.937 6.44587 12 7.99998 12C9.5541 12 10.8583 10.937 11.2283 9.4995C11.32 9.14293 11.1054 8.77948 10.7488 8.6877C10.3922 8.59593 10.0288 8.81059 9.93701 9.16715C9.71495 10.0299 8.93099 10.6667 7.99998 10.6667C7.06898 10.6667 6.28501 10.0299 6.06295 9.16715Z" fill="#9AA4B2"/>
</svg>
