<svg width="16" height="16" viewBox="0 0 16 16" fill="none" xmlns="http://www.w3.org/2000/svg">
<path fill-rule="evenodd" clip-rule="evenodd" d="M12.559 0.666672H3.44096C3.08955 0.666661 2.78634 0.666652 2.53664 0.687054C2.27308 0.708588 2.01093 0.756132 1.75868 0.884661C1.38235 1.07641 1.07639 1.38237 0.884646 1.75869C0.756116 2.01095 0.708572 2.27309 0.687038 2.53666C0.666637 2.78636 0.666646 3.08952 0.666657 3.44093V4.55904C0.666646 4.91045 0.666637 5.21366 0.687038 5.46336C0.708572 5.72692 0.756116 5.98907 0.884646 6.24132C1.07639 6.61765 1.38235 6.92361 1.75868 7.11535C2.01093 7.24388 2.27308 7.29143 2.53664 7.31296C2.78635 7.33336 3.08953 7.33335 3.44096 7.33334H12.559C12.9104 7.33335 13.2136 7.33336 13.4633 7.31296C13.7269 7.29143 13.9891 7.24388 14.2413 7.11535C14.6176 6.92361 14.9236 6.61765 15.1153 6.24132C15.2439 5.98907 15.2914 5.72692 15.3129 5.46336C15.3333 5.21365 15.3333 4.91048 15.3333 4.55905V3.44096C15.3333 3.08954 15.3333 2.78637 15.3129 2.53666C15.2914 2.27309 15.2439 2.01095 15.1153 1.75869C14.9236 1.38237 14.6176 1.07641 14.2413 0.884661C13.9891 0.756132 13.7269 0.708588 13.4633 0.687054C13.2136 0.666652 12.9104 0.666661 12.559 0.666672ZM3.99999 3.16667C3.53975 3.16667 3.16666 3.53977 3.16666 4.00001C3.16666 4.46024 3.53975 4.83334 3.99999 4.83334C4.46023 4.83334 4.83332 4.46024 4.83332 4.00001C4.83332 3.53977 4.46023 3.16667 3.99999 3.16667Z" fill="#9AA4B2"/>
<path fill-rule="evenodd" clip-rule="evenodd" d="M12.559 8.66667H3.44096C3.08953 8.66666 2.78635 8.66665 2.53664 8.68705C2.27308 8.70859 2.01093 8.75613 1.75868 8.88466C1.38235 9.07641 1.07639 9.38237 0.884646 9.75869C0.756116 10.0109 0.708572 10.2731 0.687038 10.5367C0.666637 10.7864 0.666646 11.0895 0.666657 11.4409V12.559C0.666646 12.9104 0.666637 13.2137 0.687038 13.4634C0.708572 13.7269 0.756116 13.9891 0.884646 14.2413C1.07639 14.6176 1.38235 14.9236 1.75868 15.1154C2.01093 15.2439 2.27308 15.2914 2.53664 15.313C2.78636 15.3334 3.08954 15.3334 3.44098 15.3333H12.559C12.9104 15.3334 13.2136 15.3334 13.4633 15.313C13.7269 15.2914 13.9891 15.2439 14.2413 15.1154C14.6176 14.9236 14.9236 14.6176 15.1153 14.2413C15.2439 13.9891 15.2914 13.7269 15.3129 13.4634C15.3333 13.2136 15.3333 12.9105 15.3333 12.5591V11.441C15.3333 11.0895 15.3333 10.7864 15.3129 10.5367C15.2914 10.2731 15.2439 10.0109 15.1153 9.75869C14.9236 9.38237 14.6176 9.07641 14.2413 8.88466C13.9891 8.75613 13.7269 8.70859 13.4633 8.68705C13.2136 8.66665 12.9105 8.66666 12.559 8.66667ZM3.16666 12C3.16666 11.5398 3.53975 11.1667 3.99999 11.1667C4.46023 11.1667 4.83332 11.5398 4.83332 12C4.83332 12.4602 4.46023 12.8333 3.99999 12.8333C3.53975 12.8333 3.16666 12.4602 3.16666 12Z" fill="#9AA4B2"/>
</svg>
