<svg width="16" height="16" viewBox="0 0 16 16" fill="none" xmlns="http://www.w3.org/2000/svg">
<path fill-rule="evenodd" clip-rule="evenodd" d="M12.021 9.91783C12.1128 9.56126 12.4763 9.34661 12.8328 9.43838C14.2704 9.80838 15.3333 11.1125 15.3333 12.6667V14C15.3333 14.3682 15.0349 14.6667 14.6667 14.6667C14.2985 14.6667 14 14.3682 14 14V12.6667C14 11.7357 13.3632 10.9517 12.5005 10.7296C12.1439 10.6379 11.9293 10.2744 12.021 9.91783Z" fill="#9AA4B2"/>
<path fill-rule="evenodd" clip-rule="evenodd" d="M9.71537 1.94369C9.85352 1.6024 10.2422 1.43773 10.5835 1.57588C11.8038 2.06987 12.6667 3.2667 12.6667 4.66666C12.6667 6.06662 11.8038 7.26346 10.5835 7.75745C10.2422 7.8956 9.85352 7.73092 9.71537 7.38963C9.57722 7.04834 9.74189 6.65968 10.0832 6.52153C10.8174 6.22434 11.3333 5.50496 11.3333 4.66666C11.3333 3.82837 10.8174 3.10898 10.0832 2.81179C9.74189 2.67364 9.57722 2.28498 9.71537 1.94369Z" fill="#9AA4B2"/>
<path fill-rule="evenodd" clip-rule="evenodd" d="M4.78595 9.33331C5.81754 9.33364 6.84912 9.33364 7.8807 9.33331C8.60778 9.33307 9.10392 9.3329 9.52939 9.44691C10.6797 9.75513 11.5782 10.6536 11.8864 11.8039C12.0399 12.3768 11.9955 12.9891 12.0001 13.5761C12.0007 13.6473 12.0018 13.7915 11.9659 13.9255C11.8735 14.2706 11.6039 14.5401 11.2588 14.6326C11.1248 14.6685 10.9807 14.6673 10.9094 14.6668C7.85938 14.6424 4.80728 14.6424 1.75727 14.6668C1.68599 14.6673 1.54185 14.6685 1.40784 14.6326C1.06275 14.5401 0.793202 14.2706 0.700735 13.9255C0.664827 13.7915 0.665976 13.6473 0.666544 13.5761C0.671212 12.9905 0.626984 12.3759 0.780241 11.8039C1.08847 10.6536 1.98696 9.75513 3.13726 9.44691C3.56274 9.3329 4.05887 9.33307 4.78595 9.33331Z" fill="#9AA4B2"/>
<path fill-rule="evenodd" clip-rule="evenodd" d="M2.99999 4.66666C2.99999 2.82571 4.49238 1.33333 6.33333 1.33333C8.17428 1.33333 9.66666 2.82571 9.66666 4.66666C9.66666 6.50761 8.17428 7.99999 6.33333 7.99999C4.49238 7.99999 2.99999 6.50761 2.99999 4.66666Z" fill="#9AA4B2"/>
</svg>
